<mxfile host="app.diagrams.net" modified="2023-06-05T02:52:19.603Z" agent="Mozilla/5.0 (Windows NT 10.0; Win64; x64; rv:109.0) Gecko/20100101 Firefox/109.0" etag="1dytIrCxb7JEd8iYUwQN" version="21.3.6" type="device" pages="2">
  <diagram name="Page-1" id="xThQm4sT6X-N74NFxG7Y">
    <mxGraphModel dx="715" dy="434" grid="1" gridSize="10" guides="1" tooltips="1" connect="1" arrows="1" fold="1" page="1" pageScale="1" pageWidth="827" pageHeight="1300" math="0" shadow="0">
      <root>
        <mxCell id="0" />
        <mxCell id="1" parent="0" />
        <mxCell id="gyr-2Z-5z_VwfHifDC50-1" value="delete" style="verticalLabelPosition=bottom;verticalAlign=top;html=1;shape=mxgraph.basic.rect;fillColor2=none;strokeWidth=1;size=20;indent=5;" parent="1" vertex="1">
          <mxGeometry x="100" y="170" width="120" height="60" as="geometry" />
        </mxCell>
      </root>
    </mxGraphModel>
  </diagram>
  <diagram id="4rwwZ6D2N6Y5Vrb3ogvn" name="Page-2">
    <mxGraphModel dx="715" dy="434" grid="1" gridSize="10" guides="1" tooltips="1" connect="1" arrows="1" fold="1" page="1" pageScale="1" pageWidth="827" pageHeight="1300" math="0" shadow="0">
      <root>
        <mxCell id="0" />
        <mxCell id="1" parent="0" />
        <UserObject label="" tags="Background" id="zy0sibjaueYdzKyYKhKY-1">
          <mxCell style="vsdxID=1;fillColor=none;gradientColor=none;strokeOpacity=0;spacingTop=-3;spacingBottom=-3;spacingLeft=-3;spacingRight=-3;points=[[0,0.5,0],[1,0.5,0],[0.5,1,0],[0.5,0,0]];labelBackgroundColor=none;rounded=1;strokeColor=none;html=1;whiteSpace=wrap;verticalAlign=middle;" parent="1" vertex="1">
            <mxGeometry x="219" y="80" width="109" height="50" as="geometry" />
          </mxCell>
        </UserObject>
        <mxCell id="zy0sibjaueYdzKyYKhKY-2" style="vsdxID=2;fillColor=#d2d3d5;gradientColor=none;strokeOpacity=0;shape=stencil(jZPRjoIwEEW/pq/NdGYVeNy4+gN+AZEqzbJgKir69SLThrbumuWpvXOHOdwMglanujxqgXDqbfetr6bqa0FfAtG0tbamH0+C1oJW+87qg+3ObcX3Yzk6ESZFV9yjnm6E0u625q5ZA0kqW3CBO3+6y3PiwPUcuHZz9um2YefubNmquFgoCUtnV6EfBnQE4F/nBERJWRE8DmWgtMEJi4AAPn+BmDuckGVyiTFGCJqS+cl5Mtgb5smNaYOgMA4qsr9S5rL4iDFnAIyi84DhZ1Ds+G80STB/Zo8vjDGSn58CvA/o3SaNh2lheZVN0/C+h/V0wUeJfw5aPwA=);spacingTop=-3;spacingBottom=-3;spacingLeft=-3;spacingRight=-3;points=[[0,0.5,0],[1,0.5,0],[0.5,1,0],[0.5,0,0]];labelBackgroundColor=none;rounded=1;html=1;whiteSpace=wrap;" parent="zy0sibjaueYdzKyYKhKY-1" vertex="1">
          <mxGeometry width="109" height="50" as="geometry" />
        </mxCell>
        <mxCell id="zy0sibjaueYdzKyYKhKY-3" value="&lt;div style=&quot;font-size: 1px&quot; align=&quot;center&quot;&gt;&lt;p style=&quot;margin: 0px; text-indent: 0px; vertical-align: middle; direction: ltr;&quot;&gt;&lt;font style=&quot;font-size:11.29px;font-family:Arial;color:#3d4752;direction:ltr;letter-spacing:0px;line-height:100%;opacity:1&quot;&gt;websockets.serve()&lt;br&gt;&lt;/font&gt;&lt;/p&gt;&lt;/div&gt;&lt;div align=&quot;center&quot;&gt;后端开始&lt;br&gt;&lt;/div&gt;" style="text;vsdxID=1;fillColor=none;gradientColor=none;strokeOpacity=0;spacingTop=-3;spacingBottom=-3;spacingLeft=-3;spacingRight=-3;points=[[0,0.5,0],[1,0.5,0],[0.5,1,0],[0.5,0,0]];labelBackgroundColor=none;rounded=1;strokeColor=none;html=1;whiteSpace=wrap;verticalAlign=middle;align=center;overflow=width;;html=1;" parent="zy0sibjaueYdzKyYKhKY-1" vertex="1">
          <mxGeometry x="3.4210891089108912" y="2.38" width="102.79455445544555" height="44.45" as="geometry" />
        </mxCell>
        <UserObject label="" tags="Background" id="zy0sibjaueYdzKyYKhKY-4">
          <mxCell style="vsdxID=3;strokeOpacity=0;spacingTop=-3;spacingBottom=-3;spacingLeft=-3;spacingRight=-3;points=[[0,0.5,0],[1,0.5,0],[0.5,1,0],[0.5,0,0]];labelBackgroundColor=none;rounded=1;html=1;whiteSpace=wrap;" parent="1" vertex="1">
            <mxGeometry x="219" y="181" width="101" height="76" as="geometry" />
          </mxCell>
        </UserObject>
        <mxCell id="zy0sibjaueYdzKyYKhKY-5" style="vsdxID=4;fillColor=#ff8080;gradientColor=none;strokeOpacity=0;shape=stencil(vVPBcoMgFPwajjLAi1DPafoD/QKmEmVqxUHamHx90edkxGpuzQ12F5Z9zBI49rXuDBGsD959mostQ03glQhh29p4G+KKwInA8ey8qbz7bkvcdzoqBZsQU+IZPqoF0/7j3d4MYowCVzkSePLL/YyOw8wjdcWdpFJNwBtq41Wjyaw90AJQ7u/6/AWRWZIn182XD5kebJ95F3Swrk24RvvKZNEnOze6Sqj+Yky3gPnyZY1tFymKLd/NDDk9yDSDoiLNwNnOUJ4QZO1dAAV49CPyz49wlaRZjeZu8P9Zto13cii1zgEyybE3lycEedyRuJjKiDW1TYNdXvLr8kYIiw+nXw==);spacingTop=-3;spacingBottom=-3;spacingLeft=-3;spacingRight=-3;points=[[0,0.5,0],[1,0.5,0],[0.5,1,0],[0.5,0,0]];labelBackgroundColor=none;rounded=1;html=1;whiteSpace=wrap;" parent="zy0sibjaueYdzKyYKhKY-4" vertex="1">
          <mxGeometry width="101" height="76" as="geometry" />
        </mxCell>
        <mxCell id="zy0sibjaueYdzKyYKhKY-6" value="&lt;div style=&quot;font-size: 1px&quot;&gt;&lt;p style=&quot;text-align:center;margin-left:0;margin-right:0;margin-top:0px;margin-bottom:0px;text-indent:0;vertical-align:middle;direction:ltr;&quot;&gt;&lt;font style=&quot;font-size:15.52px;font-family:Arial;color:#ffffff;direction:ltr;letter-spacing:0px;line-height:100%;opacity:1&quot;&gt;Token检查&lt;/font&gt;&lt;/p&gt;&lt;/div&gt;" style="text;vsdxID=3;fillColor=none;gradientColor=none;strokeOpacity=0;spacingTop=-3;spacingBottom=-3;spacingLeft=-3;spacingRight=-3;points=[[0,0.5,0],[1,0.5,0],[0.5,1,0],[0.5,0,0]];labelBackgroundColor=none;rounded=1;strokeColor=none;html=1;whiteSpace=wrap;verticalAlign=middle;align=center;overflow=width;;html=1;" parent="zy0sibjaueYdzKyYKhKY-4" vertex="1">
          <mxGeometry x="3.17" y="2.98" width="95.25" height="69.85" as="geometry" />
        </mxCell>
        <mxCell id="zy0sibjaueYdzKyYKhKY-7" style="edgeStyle=orthogonalEdgeStyle;rounded=0;orthogonalLoop=1;jettySize=auto;html=1;entryX=0;entryY=0.5;entryDx=0;entryDy=0;entryPerimeter=0;" parent="1" source="zy0sibjaueYdzKyYKhKY-9" target="zy0sibjaueYdzKyYKhKY-33" edge="1">
          <mxGeometry relative="1" as="geometry" />
        </mxCell>
        <mxCell id="zy0sibjaueYdzKyYKhKY-8" value="No" style="edgeLabel;html=1;align=center;verticalAlign=middle;resizable=0;points=[];" parent="zy0sibjaueYdzKyYKhKY-7" vertex="1" connectable="0">
          <mxGeometry x="-0.1827" y="-1" relative="1" as="geometry">
            <mxPoint as="offset" />
          </mxGeometry>
        </mxCell>
        <UserObject label="" tags="Background" id="zy0sibjaueYdzKyYKhKY-9">
          <mxCell style="vsdxID=5;fillColor=none;gradientColor=none;strokeColor=none;strokeWidth=3;spacingTop=-3;spacingBottom=-3;spacingLeft=-3;spacingRight=-3;points=[[0,0.5,0],[1,0.5,0],[0.5,1,0],[0.5,0,0],[0.89,1,0]];labelBackgroundColor=none;rounded=1;html=1;whiteSpace=wrap;" parent="1" vertex="1">
            <mxGeometry x="218" y="586" width="100" height="76" as="geometry" />
          </mxCell>
        </UserObject>
        <mxCell id="zy0sibjaueYdzKyYKhKY-10" style="vsdxID=6;fillColor=#ffffff;gradientColor=none;shape=stencil(vZNNkoMgEIVPw1KKH1GzTjIXmBNQkSg1RCxkJianD9paJVSS3WQH3Y9uPpqH+H5oZa8QI4N39kddde1bxA+IMd21ymkfVogfEd+frVONs79dDfteBiUjc0TVcIZOakakO33ru4IYwZyWAhJw8mL/po4j5PMCcrdlO+++QBkKTS0WZYkrkLpFSwkG+VpL5E9qkTGTox4yZ7302nbLtSBnpGtUFvpkZyObKDVcleo3Ybq9mdHdhmGXMBSvITiuWEwhMI0gkmLiYxTJ6+3eUAi8jm2lKDGrIoxkrivV/2Pkz57vxSwKGlPkuIqHkXyoz0G8cUVYzOYDW2pjwLvbfGrWEAKj8+MD);strokeColor=#c54242;strokeWidth=3;spacingTop=-3;spacingBottom=-3;spacingLeft=-3;spacingRight=-3;points=[[0,0.5,0],[1,0.5,0],[0.5,1,0],[0.5,0,0]];labelBackgroundColor=none;rounded=1;html=1;whiteSpace=wrap;" parent="zy0sibjaueYdzKyYKhKY-9" vertex="1">
          <mxGeometry width="100" height="76" as="geometry" />
        </mxCell>
        <mxCell id="zy0sibjaueYdzKyYKhKY-11" value="&lt;div style=&quot;font-size: 1px&quot;&gt;&lt;p style=&quot;text-align:center;margin-left:0;margin-right:0;margin-top:0px;margin-bottom:0px;text-indent:0;vertical-align:middle;direction:ltr;&quot;&gt;&lt;font style=&quot;font-size:11.29px;font-family:Arial;color:#333333;direction:ltr;letter-spacing:0px;line-height:100%;opacity:1&quot;&gt;是否登录？&lt;/font&gt;&lt;/p&gt;&lt;/div&gt;" style="text;vsdxID=5;fillColor=none;gradientColor=none;strokeColor=none;strokeWidth=3;spacingTop=-3;spacingBottom=-3;spacingLeft=-3;spacingRight=-3;points=[[0,0.5,0],[1,0.5,0],[0.5,1,0],[0.5,0,0],[0.89,1,0]];labelBackgroundColor=none;rounded=1;html=1;whiteSpace=wrap;verticalAlign=middle;align=center;overflow=width;;html=1;" parent="zy0sibjaueYdzKyYKhKY-9" vertex="1">
          <mxGeometry x="3.1386138613861387" y="2.98" width="94.3069306930693" height="69.85" as="geometry" />
        </mxCell>
        <UserObject label="" tags="Background" id="zy0sibjaueYdzKyYKhKY-12">
          <mxCell style="vsdxID=7;fillColor=none;gradientColor=none;strokeOpacity=0;spacingTop=-3;spacingBottom=-3;spacingLeft=-3;spacingRight=-3;points=[[0,0.5,0],[1,0.5,0],[0.5,1,0],[0.5,0,0]];labelBackgroundColor=none;rounded=1;strokeColor=none;html=1;whiteSpace=wrap;" parent="1" vertex="1">
            <mxGeometry x="491" y="716" width="101" height="50" as="geometry" />
          </mxCell>
        </UserObject>
        <mxCell id="zy0sibjaueYdzKyYKhKY-13" style="vsdxID=8;fillColor=#d2d3d5;gradientColor=none;strokeOpacity=0;shape=stencil(jZPRjoIwEEW/pq/NdGYVeNy4+gN+AZEqzbJgKir69SLThrbumuWpvXOHOdwMglanujxqgXDqbfetr6bqa0FfAtG0tbamH0+C1oJW+87qg+3ObcX3Yzk6ESZFV9yjnm6E0u625q5ZA0kqW3CBO3+6y3PiwPUcuHZz9um2YefubNmquFgoCUtnV6EfBnQE4F/nBERJWRE8DmWgtMEJi4AAPn+BmDuckGVyiTFGCJqS+cl5Mtgb5smNaYOgMA4qsr9S5rL4iDFnAIyi84DhZ1Ds+G80STB/Zo8vjDGSn58CvA/o3SaNh2lheZVN0/C+h/V0wUeJfw5aPwA=);spacingTop=-3;spacingBottom=-3;spacingLeft=-3;spacingRight=-3;points=[[0,0.5,0],[1,0.5,0],[0.5,1,0],[0.5,0,0]];labelBackgroundColor=none;rounded=1;html=1;whiteSpace=wrap;" parent="zy0sibjaueYdzKyYKhKY-12" vertex="1">
          <mxGeometry width="101" height="50" as="geometry" />
        </mxCell>
        <mxCell id="zy0sibjaueYdzKyYKhKY-14" value="&lt;div style=&quot;font-size: 1px&quot;&gt;&lt;p style=&quot;text-align:center;margin-left:0;margin-right:0;margin-top:0px;margin-bottom:0px;text-indent:0;vertical-align:middle;direction:ltr;&quot;&gt;&lt;font style=&quot;font-size:11.29px;font-family:Arial;color:#333333;direction:ltr;letter-spacing:0px;line-height:100%;opacity:1&quot;&gt;pause&lt;/font&gt;&lt;/p&gt;&lt;p style=&quot;text-align:center;margin-left:0;margin-right:0;margin-top:0px;margin-bottom:0px;text-indent:0;vertical-align:middle;direction:ltr;&quot;&gt;&lt;font style=&quot;font-size:11.29px;font-family:Arial;color:#333333;direction:ltr;letter-spacing:0px;line-height:100%;opacity:1&quot;&gt;暂停&lt;br&gt;&lt;/font&gt;&lt;/p&gt;&lt;/div&gt;" style="text;vsdxID=7;fillColor=none;gradientColor=none;strokeOpacity=0;spacingTop=-3;spacingBottom=-3;spacingLeft=-3;spacingRight=-3;points=[[0,0.5,0],[1,0.5,0],[0.5,1,0],[0.5,0,0]];labelBackgroundColor=none;rounded=1;strokeColor=none;html=1;whiteSpace=wrap;verticalAlign=middle;align=center;overflow=width;;html=1;" parent="zy0sibjaueYdzKyYKhKY-12" vertex="1">
          <mxGeometry x="3.17" y="2.38" width="95.25" height="44.45" as="geometry" />
        </mxCell>
        <UserObject label="" tags="Background" id="zy0sibjaueYdzKyYKhKY-15">
          <mxCell style="vsdxID=9;edgeStyle=none;startArrow=none;endArrow=block;startSize=5;endSize=5;strokeColor=#333333;spacingTop=-3;spacingBottom=-3;spacingLeft=-3;spacingRight=-3;verticalAlign=middle;html=1;labelBackgroundColor=none;rounded=1;" parent="1" edge="1">
            <mxGeometry relative="1" as="geometry">
              <mxPoint as="offset" />
              <Array as="points" />
              <mxPoint x="270" y="131" as="sourcePoint" />
              <mxPoint x="270" y="181" as="targetPoint" />
            </mxGeometry>
          </mxCell>
        </UserObject>
        <UserObject label="" tags="Background" id="zy0sibjaueYdzKyYKhKY-16">
          <mxCell style="vsdxID=10;edgeStyle=none;startArrow=none;endArrow=block;startSize=5;endSize=5;strokeColor=#333333;spacingTop=-3;spacingBottom=-3;spacingLeft=-3;spacingRight=-3;verticalAlign=middle;html=1;labelBackgroundColor=none;rounded=1;" parent="1" edge="1">
            <mxGeometry relative="1" as="geometry">
              <mxPoint as="offset" />
              <Array as="points" />
              <mxPoint x="270" y="258" as="sourcePoint" />
              <mxPoint x="270" y="308" as="targetPoint" />
            </mxGeometry>
          </mxCell>
        </UserObject>
        <UserObject label="" tags="Background" id="zy0sibjaueYdzKyYKhKY-17">
          <mxCell style="vsdxID=11;fillColor=none;gradientColor=none;strokeWidth=102;spacingTop=-3;spacingBottom=-3;spacingLeft=-3;spacingRight=-3;points=[];labelBackgroundColor=none;rounded=0;strokeColor=none;html=1;whiteSpace=wrap;" parent="1" vertex="1">
            <mxGeometry x="350" y="100" width="350" height="70" as="geometry" />
          </mxCell>
        </UserObject>
        <mxCell id="zy0sibjaueYdzKyYKhKY-18" style="vsdxID=12;fillColor=none;gradientColor=none;fillOpacity=0;strokeOpacity=0;spacingTop=-3;spacingBottom=-3;spacingLeft=-3;spacingRight=-3;points=[[0,0.5,0],[1,0.5,0],[0.5,1,0],[0.5,0,0]];labelBackgroundColor=none;rounded=1;strokeColor=none;html=1;whiteSpace=wrap;" parent="zy0sibjaueYdzKyYKhKY-17" vertex="1">
          <mxGeometry width="349.3542435424354" height="47.89473684210527" as="geometry" />
        </mxCell>
        <mxCell id="zy0sibjaueYdzKyYKhKY-19" style="vsdxID=13;fillColor=#ffffff;gradientColor=none;fillOpacity=0;strokeOpacity=0;shape=stencil(vVTLdoMgEP0alnJ4+IB1mvxAv4BTiXJKxYO0sf36omMbMam7Zod37szlzjAifhha1WvEyBC8e9UXU4cW8SfEmOla7U2IJ8SPiB/OzuvGu/euhu9eRSYjM6JryKETmxHlX57NlwaMYE6rAgKQ+eY+JsVxiUPoc6kgcZ7PyAnIsdak8kPGkgPfXxOoAOjKyZOai8KYqdEMmXdBBeO6JGaVb3QWtbKzVU0SGi5a9yuYrm9nTbeyIiUm5R3pu1YoJjS1Mt28SqxQ8ld3HuNGykReEFyKveGIcjOcCguZOLpt0a/H/3d08zKiNqZs97ltZkQFFkX63LYtKsqH+dlfnXiYlxTW11gLO76Ob5c6QvBD4Mdv);spacingTop=-3;spacingBottom=-3;spacingLeft=-3;spacingRight=-3;points=[[0,0.5,0],[1,0.5,0],[0.5,1,0],[0.5,0,0]];labelBackgroundColor=none;rounded=1;html=1;whiteSpace=wrap;" parent="zy0sibjaueYdzKyYKhKY-18" vertex="1">
          <mxGeometry width="349.3542435424354" height="47.89473684210527" as="geometry" />
        </mxCell>
        <mxCell id="zy0sibjaueYdzKyYKhKY-20" value="&lt;div style=&quot;font-size: 1px&quot;&gt;&lt;p style=&quot;text-align:center;margin-left:6;margin-right:6;margin-top:2px;margin-bottom:0px;text-indent:0;vertical-align:middle;direction:ltr;&quot;&gt;&lt;font style=&quot;font-size:16.93px;font-family:Arial;color:#a9afb8;direction:ltr;letter-spacing:0px;line-height:100%;opacity:1&quot;&gt;&lt;b&gt;Legal-Chat Backend Flowchart&lt;/b&gt;&lt;/font&gt;&lt;/p&gt;&lt;/div&gt;" style="text;vsdxID=12;fillColor=none;gradientColor=none;fillOpacity=0;strokeOpacity=0;spacingTop=-3;spacingBottom=-3;spacingLeft=-3;spacingRight=-3;points=[[0,0.5,0],[1,0.5,0],[0.5,1,0],[0.5,0,0]];labelBackgroundColor=none;rounded=1;strokeColor=none;html=1;whiteSpace=wrap;verticalAlign=middle;align=center;overflow=width;;html=1;" parent="zy0sibjaueYdzKyYKhKY-18" vertex="1">
          <mxGeometry x="1.6402214022140222" y="4.439473684210527" width="346.5" height="39.771052631578954" as="geometry" />
        </mxCell>
        <mxCell id="zy0sibjaueYdzKyYKhKY-21" style="vsdxID=14;fillColor=none;gradientColor=none;shape=stencil(hZA7DsIwDEBP45HITYTUzqVcgBNExJAISCo35Xd60pihYmGzn/3kD5h+8nYk0DhlThd6BJc9mB1oHaInDrlEYAYw/SkxnTnN0Uk+2tKpsRJy4jRLt0bLx0N4k7CtwlaweLd0X+Y9pbpBhV/rJaRrVSfCXoRriCuhwf9GCep2NZHD1rXfSwqSL5jhAw==);strokeColor=#a9afb8;spacingTop=-3;spacingBottom=-3;spacingLeft=-3;spacingRight=-3;points=[];labelBackgroundColor=none;rounded=1;html=1;whiteSpace=wrap;" parent="zy0sibjaueYdzKyYKhKY-17" vertex="1">
          <mxGeometry x="85.23985239852398" y="46.05263157894737" width="180.16605166051662" height="1.8421052631578947" as="geometry" />
        </mxCell>
        <mxCell id="zy0sibjaueYdzKyYKhKY-22" style="vsdxID=15;fillColor=none;gradientColor=none;fillOpacity=0;strokeOpacity=0;spacingTop=-3;spacingBottom=-3;spacingLeft=-3;spacingRight=-3;points=[[0,0.5,0],[1,0.5,0],[0.5,1,0],[0.5,0,0]];labelBackgroundColor=none;rounded=1;strokeColor=none;html=1;whiteSpace=wrap;" parent="zy0sibjaueYdzKyYKhKY-17" vertex="1">
          <mxGeometry y="47.89473684210527" width="350" height="20.263157894736842" as="geometry" />
        </mxCell>
        <mxCell id="zy0sibjaueYdzKyYKhKY-23" style="vsdxID=16;fillColor=#ffffff;gradientColor=none;fillOpacity=0;strokeOpacity=0;shape=stencil(vVTLdoMgFPwalnJ4KbpO0x/oF3AqUU6teJA2Jl9f9JpWSO2u2cHMXIa5ckX8MLZq0IiR0Tv7ps+m9i3iT4gx07faGR9WiB8RP5ys042zH30N+0EFJSMLomuoobOaEeVeX8xVA0YwpzIHAirf7efsOK08UBfYCYaFWJBnEIezZpebGFcM9O5WQHFZAvSjEdGZq8OUqcmMmbNeeWP7iOuUa3QWvLJTp5qIGs9aDxuYbm/XmX4TpaowKX6x3osikigMSxpFoWSvOw9Ik5rnEvP9OBSTMolTYllEce778+3x/3HunkW4zfoud76PTALxHAsZP7W0QXnxsDh/j01YLAMKo2u6DuZ7y6cDHSD4GfDjFw==);spacingTop=-3;spacingBottom=-3;spacingLeft=-3;spacingRight=-3;points=[[0,0.5,0],[1,0.5,0],[0.5,1,0],[0.5,0,0]];labelBackgroundColor=none;rounded=1;html=1;whiteSpace=wrap;" parent="zy0sibjaueYdzKyYKhKY-22" vertex="1">
          <mxGeometry width="350" height="20.263157894736842" as="geometry" />
        </mxCell>
        <mxCell id="zy0sibjaueYdzKyYKhKY-24" value="&lt;div style=&quot;font-size: 1px&quot;&gt;&lt;p style=&quot;text-align:center;margin-left:6;margin-right:6;margin-top:2px;margin-bottom:0px;text-indent:0;vertical-align:middle;direction:ltr;&quot;&gt;&lt;font style=&quot;font-size:9.88px;font-family:Arial;color:#a9afb8;direction:ltr;letter-spacing:0px;line-height:100%;opacity:1&quot;&gt;Breeky Sneaky  |  May 30, 2023&lt;/font&gt;&lt;/p&gt;&lt;/div&gt;" style="text;vsdxID=15;fillColor=none;gradientColor=none;fillOpacity=0;strokeOpacity=0;spacingTop=-3;spacingBottom=-3;spacingLeft=-3;spacingRight=-3;points=[[0,0.5,0],[1,0.5,0],[0.5,1,0],[0.5,0,0]];labelBackgroundColor=none;rounded=1;strokeColor=none;html=1;whiteSpace=wrap;verticalAlign=middle;align=center;overflow=width;;html=1;" parent="zy0sibjaueYdzKyYKhKY-22" vertex="1">
          <mxGeometry x="1.6402214022140222" y="2.8921052631578945" width="346.90682656826567" height="12.876315789473685" as="geometry" />
        </mxCell>
        <UserObject label="" tags="Background" id="zy0sibjaueYdzKyYKhKY-25">
          <mxCell style="vsdxID=17;fillColor=none;gradientColor=none;strokeOpacity=0;spacingTop=-3;spacingBottom=-3;spacingLeft=-3;spacingRight=-3;points=[[0,0.5,0],[1,0.5,0],[0.5,1,0],[0.5,0,0]];labelBackgroundColor=none;rounded=1;strokeColor=none;html=1;whiteSpace=wrap;" parent="1" vertex="1">
            <mxGeometry x="219" y="308" width="101" height="76" as="geometry" />
          </mxCell>
        </UserObject>
        <mxCell id="zy0sibjaueYdzKyYKhKY-26" style="vsdxID=18;fillColor=#ff8080;gradientColor=none;strokeOpacity=0;shape=stencil(vVPBcoMgFPwajjLAi1DPafoD/QKmEmVqxUHamHx90edkxGpuzQ12F5Z9zBI49rXuDBGsD959mostQ03glQhh29p4G+KKwInA8ey8qbz7bkvcdzoqBZsQU+IZPqoF0/7j3d4MYowCVzkSePLL/YyOw8wjdcWdpFJNwBtq41Wjyaw90AJQ7u/6/AWRWZIn182XD5kebJ95F3Swrk24RvvKZNEnOze6Sqj+Yky3gPnyZY1tFymKLd/NDDk9yDSDoiLNwNnOUJ4QZO1dAAV49CPyz49wlaRZjeZu8P9Zto13cii1zgEyybE3lycEedyRuJjKiDW1TYNdXvLr8kYIiw+nXw==);spacingTop=-3;spacingBottom=-3;spacingLeft=-3;spacingRight=-3;points=[[0,0.5,0],[1,0.5,0],[0.5,1,0],[0.5,0,0]];labelBackgroundColor=none;rounded=1;html=1;whiteSpace=wrap;" parent="zy0sibjaueYdzKyYKhKY-25" vertex="1">
          <mxGeometry width="101" height="76" as="geometry" />
        </mxCell>
        <mxCell id="zy0sibjaueYdzKyYKhKY-27" value="&lt;div style=&quot;font-size: 1px&quot;&gt;&lt;p style=&quot;text-align:center;margin-left:0;margin-right:0;margin-top:0px;margin-bottom:0px;text-indent:0;vertical-align:middle;direction:ltr;&quot;&gt;&lt;font style=&quot;font-size:15.52px;font-family:Arial;color:#ffffff;direction:ltr;letter-spacing:0px;line-height:100%;opacity:1&quot;&gt;接收Chat ID&lt;/font&gt;&lt;/p&gt;&lt;/div&gt;" style="text;vsdxID=17;fillColor=none;gradientColor=none;strokeOpacity=0;spacingTop=-3;spacingBottom=-3;spacingLeft=-3;spacingRight=-3;points=[[0,0.5,0],[1,0.5,0],[0.5,1,0],[0.5,0,0]];labelBackgroundColor=none;rounded=1;strokeColor=none;html=1;whiteSpace=wrap;verticalAlign=middle;align=center;overflow=width;;html=1;" parent="zy0sibjaueYdzKyYKhKY-25" vertex="1">
          <mxGeometry x="3.17" y="2.98" width="95.25" height="69.85" as="geometry" />
        </mxCell>
        <UserObject label="" tags="Background" id="zy0sibjaueYdzKyYKhKY-28">
          <mxCell style="vsdxID=19;fillColor=none;gradientColor=none;strokeOpacity=0;spacingTop=-3;spacingBottom=-3;spacingLeft=-3;spacingRight=-3;points=[[0,0.5,0],[1,0.5,0],[0.5,1,0],[0.5,0,0]];labelBackgroundColor=none;rounded=1;strokeColor=none;html=1;whiteSpace=wrap;" parent="1" vertex="1">
            <mxGeometry x="218" y="452" width="101" height="76" as="geometry" />
          </mxCell>
        </UserObject>
        <mxCell id="zy0sibjaueYdzKyYKhKY-29" style="vsdxID=20;fillColor=#ff8080;gradientColor=none;strokeOpacity=0;shape=stencil(vVPBcoMgFPwajjLAi1DPafoD/QKmEmVqxUHamHx90edkxGpuzQ12F5Z9zBI49rXuDBGsD959mostQ03glQhh29p4G+KKwInA8ey8qbz7bkvcdzoqBZsQU+IZPqoF0/7j3d4MYowCVzkSePLL/YyOw8wjdcWdpFJNwBtq41Wjyaw90AJQ7u/6/AWRWZIn182XD5kebJ95F3Swrk24RvvKZNEnOze6Sqj+Yky3gPnyZY1tFymKLd/NDDk9yDSDoiLNwNnOUJ4QZO1dAAV49CPyz49wlaRZjeZu8P9Zto13cii1zgEyybE3lycEedyRuJjKiDW1TYNdXvLr8kYIiw+nXw==);spacingTop=-3;spacingBottom=-3;spacingLeft=-3;spacingRight=-3;points=[[0,0.5,0],[1,0.5,0],[0.5,1,0],[0.5,0,0]];labelBackgroundColor=none;rounded=1;html=1;whiteSpace=wrap;" parent="zy0sibjaueYdzKyYKhKY-28" vertex="1">
          <mxGeometry width="101" height="76" as="geometry" />
        </mxCell>
        <mxCell id="zy0sibjaueYdzKyYKhKY-30" value="&lt;p style=&quot;line-height: 100%;&quot; align=&quot;justify&quot;&gt;&lt;/p&gt;&lt;div style=&quot;font-size: 1px&quot; align=&quot;justify&quot;&gt;&lt;p style=&quot;text-align:center;margin-left:0;margin-right:0;margin-top:0px;margin-bottom:0px;text-indent:0;vertical-align:middle;direction:ltr;&quot;&gt;&lt;font style=&quot;font-size:15.52px;font-family:Arial;color:#ffffff;direction:ltr;letter-spacing:0px;line-height:100%;opacity:1&quot;&gt;接收用户第一&lt;/font&gt;&lt;/p&gt;&lt;p style=&quot;text-align:center;margin-left:0;margin-right:0;margin-top:0px;margin-bottom:0px;text-indent:0;vertical-align:middle;direction:ltr;&quot;&gt;&lt;font style=&quot;font-size:15.52px;font-family:Arial;color:#ffffff;direction:ltr;letter-spacing:0px;line-height:100%;opacity:1&quot;&gt;&lt;br&gt;&lt;/font&gt;&lt;/p&gt;&lt;p style=&quot;text-align:center;margin-left:0;margin-right:0;margin-top:0px;margin-bottom:0px;text-indent:0;vertical-align:middle;direction:ltr;&quot;&gt;&lt;font style=&quot;font-size:15.52px;font-family:Arial;color:#ffffff;direction:ltr;letter-spacing:0px;line-height:100%;opacity:1&quot;&gt;个问题&lt;/font&gt;&lt;/p&gt;&lt;/div&gt;&lt;p align=&quot;justify&quot;&gt;&lt;/p&gt;" style="text;vsdxID=19;fillColor=none;gradientColor=none;strokeOpacity=0;spacingTop=-3;spacingBottom=-3;spacingLeft=-3;spacingRight=-3;points=[[0,0.5,0],[1,0.5,0],[0.5,1,0],[0.5,0,0]];labelBackgroundColor=none;rounded=1;strokeColor=none;html=1;whiteSpace=wrap;verticalAlign=middle;align=center;overflow=width;;html=1;" parent="zy0sibjaueYdzKyYKhKY-28" vertex="1">
          <mxGeometry x="3.17" y="2.98" width="95.25" height="69.85" as="geometry" />
        </mxCell>
        <UserObject label="" tags="Background" id="zy0sibjaueYdzKyYKhKY-31">
          <mxCell style="vsdxID=21;edgeStyle=none;startArrow=none;endArrow=block;startSize=5;endSize=5;strokeColor=#3a414a;spacingTop=-3;spacingBottom=-3;spacingLeft=-3;spacingRight=-3;verticalAlign=middle;html=1;labelBackgroundColor=none;rounded=1;" parent="1" edge="1">
            <mxGeometry relative="1" as="geometry">
              <mxPoint y="-1" as="offset" />
              <Array as="points" />
              <mxPoint x="270" y="385" as="sourcePoint" />
              <mxPoint x="270" y="452" as="targetPoint" />
            </mxGeometry>
          </mxCell>
        </UserObject>
        <UserObject label="" tags="Background" id="zy0sibjaueYdzKyYKhKY-32">
          <mxCell style="vsdxID=22;edgeStyle=none;startArrow=none;endArrow=block;startSize=5;endSize=5;strokeColor=#3a414a;spacingTop=-3;spacingBottom=-3;spacingLeft=-3;spacingRight=-3;verticalAlign=middle;html=1;labelBackgroundColor=none;rounded=1;" parent="1" edge="1">
            <mxGeometry relative="1" as="geometry">
              <mxPoint as="offset" />
              <Array as="points" />
              <mxPoint x="269" y="528" as="sourcePoint" />
              <mxPoint x="269" y="587" as="targetPoint" />
            </mxGeometry>
          </mxCell>
        </UserObject>
        <UserObject label="" tags="Background" id="zy0sibjaueYdzKyYKhKY-33">
          <mxCell style="vsdxID=23;fillColor=none;gradientColor=none;strokeColor=none;strokeWidth=3;spacingTop=-3;spacingBottom=-3;spacingLeft=-3;spacingRight=-3;points=[[0,0.5,0],[1,0.5,0],[0.5,1,0],[0.5,0,0],[0.01,1,0]];labelBackgroundColor=none;rounded=1;html=1;whiteSpace=wrap;" parent="1" vertex="1">
            <mxGeometry x="409" y="584" width="109" height="80" as="geometry" />
          </mxCell>
        </UserObject>
        <mxCell id="zy0sibjaueYdzKyYKhKY-34" style="vsdxID=24;fillColor=#ffffff;gradientColor=none;shape=stencil(vZNNkoMgEIVPw1KKH1GzTjIXmBNQkSg1RCxkJianD9paJVSS3WQH3Y9uPpqH+H5oZa8QI4N39kddde1bxA+IMd21ymkfVogfEd+frVONs79dDfteBiUjc0TVcIZOakakO33ru4IYwZyWAhJw8mL/po4j5PMCcrdlO+++QBkKTS0WZYkrkLpFSwkG+VpL5E9qkTGTox4yZ7302nbLtSBnpGtUFvpkZyObKDVcleo3Ybq9mdHdhmGXMBSvITiuWEwhMI0gkmLiYxTJ6+3eUAi8jm2lKDGrIoxkrivV/2Pkz57vxSwKGlPkuIqHkXyoz0G8cUVYzOYDW2pjwLvbfGrWEAKj8+MD);strokeColor=#c54242;strokeWidth=3;spacingTop=-3;spacingBottom=-3;spacingLeft=-3;spacingRight=-3;points=[[0,0.5,0],[1,0.5,0],[0.5,1,0],[0.5,0,0]];labelBackgroundColor=none;rounded=1;html=1;whiteSpace=wrap;" parent="zy0sibjaueYdzKyYKhKY-33" vertex="1">
          <mxGeometry width="109" height="80" as="geometry" />
        </mxCell>
        <mxCell id="zy0sibjaueYdzKyYKhKY-35" value="&lt;div style=&quot;font-size: 1px&quot;&gt;&lt;p style=&quot;text-align:center;margin-left:0;margin-right:0;margin-top:0px;margin-bottom:0px;text-indent:0;vertical-align:middle;direction:ltr;&quot;&gt;&lt;font style=&quot;font-size:11.29px;font-family:Arial;color:#333333;direction:ltr;letter-spacing:0px;line-height:100%;opacity:1&quot;&gt;是否为默认问题？&lt;/font&gt;&lt;/p&gt;&lt;/div&gt;" style="text;vsdxID=23;fillColor=none;gradientColor=none;strokeColor=none;strokeWidth=3;spacingTop=-3;spacingBottom=-3;spacingLeft=-3;spacingRight=-3;points=[[0,0.5,0],[1,0.5,0],[0.5,1,0],[0.5,0,0],[0.01,1,0]];labelBackgroundColor=none;rounded=1;html=1;whiteSpace=wrap;verticalAlign=middle;align=center;overflow=width;;html=1;" parent="zy0sibjaueYdzKyYKhKY-33" vertex="1">
          <mxGeometry x="3.421089108910891" y="3.136842105263158" width="102.79455445544555" height="73.52631578947367" as="geometry" />
        </mxCell>
        <UserObject label="" tags="Background" id="zy0sibjaueYdzKyYKhKY-36">
          <mxCell style="vsdxID=29;fillColor=none;gradientColor=none;strokeOpacity=0;spacingTop=-3;spacingBottom=-3;spacingLeft=-3;spacingRight=-3;points=[[0,0.5,0],[1,0.5,0],[0.5,1,0],[0.5,0,0]];labelBackgroundColor=none;rounded=1;strokeColor=none;html=1;whiteSpace=wrap;perimeterSpacing=1;horizontal=1;" parent="1" vertex="1">
            <mxGeometry x="413" y="406" width="101" height="76" as="geometry" />
          </mxCell>
        </UserObject>
        <mxCell id="zy0sibjaueYdzKyYKhKY-37" style="vsdxID=30;fillColor=#ff8080;gradientColor=none;strokeOpacity=0;shape=stencil(vVPBcoMgFPwajjLAi1DPafoD/QKmEmVqxUHamHx90edkxGpuzQ12F5Z9zBI49rXuDBGsD959mostQ03glQhh29p4G+KKwInA8ey8qbz7bkvcdzoqBZsQU+IZPqoF0/7j3d4MYowCVzkSePLL/YyOw8wjdcWdpFJNwBtq41Wjyaw90AJQ7u/6/AWRWZIn182XD5kebJ95F3Swrk24RvvKZNEnOze6Sqj+Yky3gPnyZY1tFymKLd/NDDk9yDSDoiLNwNnOUJ4QZO1dAAV49CPyz49wlaRZjeZu8P9Zto13cii1zgEyybE3lycEedyRuJjKiDW1TYNdXvLr8kYIiw+nXw==);spacingTop=-3;spacingBottom=-3;spacingLeft=-3;spacingRight=-3;points=[[0,0.5,0],[1,0.5,0],[0.5,1,0],[0.5,0,0]];labelBackgroundColor=none;rounded=1;html=1;whiteSpace=wrap;" parent="zy0sibjaueYdzKyYKhKY-36" vertex="1">
          <mxGeometry width="101" height="76" as="geometry" />
        </mxCell>
        <mxCell id="zy0sibjaueYdzKyYKhKY-38" value="&lt;div style=&quot;font-size: 1px&quot;&gt;&lt;p style=&quot;text-align:center;margin-left:0;margin-right:0;margin-top:0px;margin-bottom:0px;text-indent:0;vertical-align:middle;direction:ltr;&quot;&gt;&lt;font style=&quot;font-size:12.7px;font-family:Arial;color:#ffffff;direction:ltr;letter-spacing:0px;line-height:100%;opacity:1&quot;&gt;“请您登录后再找&lt;/font&gt;&lt;/p&gt;&lt;p style=&quot;text-align:center;margin-left:0;margin-right:0;margin-top:0px;margin-bottom:0px;text-indent:0;vertical-align:middle;direction:ltr;&quot;&gt;&lt;font style=&quot;font-size:12.7px;font-family:Arial;color:#ffffff;direction:ltr;letter-spacing:0px;line-height:100%;opacity:1&quot;&gt;&lt;br&gt;&lt;/font&gt;&lt;/p&gt;&lt;p style=&quot;text-align:center;margin-left:0;margin-right:0;margin-top:0px;margin-bottom:0px;text-indent:0;vertical-align:middle;direction:ltr;&quot;&gt;&lt;font style=&quot;font-size:12.7px;font-family:Arial;color:#ffffff;direction:ltr;letter-spacing:0px;line-height:100%;opacity:1&quot;&gt;我咨询更多问题”&lt;/font&gt;&lt;/p&gt;&lt;/div&gt;" style="text;vsdxID=29;fillColor=none;gradientColor=none;strokeOpacity=0;spacingTop=1;spacingBottom=-3;spacingLeft=-3;spacingRight=-3;points=[[0,0.5,0],[1,0.5,0],[0.5,1,0],[0.5,0,0]];labelBackgroundColor=none;rounded=1;strokeColor=none;html=1;whiteSpace=wrap;verticalAlign=middle;align=center;overflow=width;;html=1;fontStyle=0" parent="zy0sibjaueYdzKyYKhKY-36" vertex="1">
          <mxGeometry x="3.17" y="2.98" width="95.25" height="69.85" as="geometry" />
        </mxCell>
        <UserObject label="" tags="Background" id="zy0sibjaueYdzKyYKhKY-39">
          <mxCell style="vsdxID=31;fillColor=none;gradientColor=none;strokeOpacity=0;spacingTop=-3;spacingBottom=-3;spacingLeft=-3;spacingRight=-3;points=[[0,0.5,0],[1,0.5,0],[0.5,1,0],[0.5,0,0]];labelBackgroundColor=none;rounded=1;strokeColor=none;html=1;whiteSpace=wrap;" parent="1" vertex="1">
            <mxGeometry x="414" y="290" width="101" height="50" as="geometry" />
          </mxCell>
        </UserObject>
        <mxCell id="zy0sibjaueYdzKyYKhKY-40" style="vsdxID=32;fillColor=#d2d3d5;gradientColor=none;strokeOpacity=0;shape=stencil(jZPRjoIwEEW/pq/NdGYVeNy4+gN+AZEqzbJgKir69SLThrbumuWpvXOHOdwMglanujxqgXDqbfetr6bqa0FfAtG0tbamH0+C1oJW+87qg+3ObcX3Yzk6ESZFV9yjnm6E0u625q5ZA0kqW3CBO3+6y3PiwPUcuHZz9um2YefubNmquFgoCUtnV6EfBnQE4F/nBERJWRE8DmWgtMEJi4AAPn+BmDuckGVyiTFGCJqS+cl5Mtgb5smNaYOgMA4qsr9S5rL4iDFnAIyi84DhZ1Ds+G80STB/Zo8vjDGSn58CvA/o3SaNh2lheZVN0/C+h/V0wUeJfw5aPwA=);spacingTop=-3;spacingBottom=-3;spacingLeft=-3;spacingRight=-3;points=[[0,0.5,0],[1,0.5,0],[0.5,1,0],[0.5,0,0]];labelBackgroundColor=none;rounded=1;html=1;whiteSpace=wrap;" parent="zy0sibjaueYdzKyYKhKY-39" vertex="1">
          <mxGeometry width="101" height="50" as="geometry" />
        </mxCell>
        <mxCell id="zy0sibjaueYdzKyYKhKY-41" value="&lt;div style=&quot;font-size: 1px&quot;&gt;&lt;p style=&quot;text-align:center;margin-left:0;margin-right:0;margin-top:0px;margin-bottom:0px;text-indent:0;vertical-align:middle;direction:ltr;&quot;&gt;&lt;font style=&quot;font-size:11.29px;font-family:Arial;color:#333333;direction:ltr;letter-spacing:0px;line-height:100%;opacity:1&quot;&gt;pause&lt;/font&gt;&lt;/p&gt;&lt;/div&gt;&amp;nbsp;暂停" style="text;vsdxID=31;fillColor=none;gradientColor=none;strokeOpacity=0;spacingTop=-3;spacingBottom=-3;spacingLeft=-3;spacingRight=-3;points=[[0,0.5,0],[1,0.5,0],[0.5,1,0],[0.5,0,0]];labelBackgroundColor=none;rounded=1;strokeColor=none;html=1;whiteSpace=wrap;verticalAlign=middle;align=center;overflow=width;;html=1;" parent="zy0sibjaueYdzKyYKhKY-39" vertex="1">
          <mxGeometry x="3.17" y="2.38" width="95.25" height="44.45" as="geometry" />
        </mxCell>
        <UserObject label="" tags="Background" id="zy0sibjaueYdzKyYKhKY-42">
          <mxCell style="vsdxID=33;edgeStyle=none;startArrow=none;endArrow=block;startSize=5;endSize=5;strokeColor=#3a414a;spacingTop=-3;spacingBottom=-3;spacingLeft=-3;spacingRight=-3;verticalAlign=middle;html=1;labelBackgroundColor=none;rounded=1;exitX=0.5;exitY=0;exitDx=0;exitDy=0;exitPerimeter=0;entryX=0.5;entryY=1;entryDx=0;entryDy=0;entryPerimeter=0;" parent="1" source="zy0sibjaueYdzKyYKhKY-37" target="zy0sibjaueYdzKyYKhKY-40" edge="1">
            <mxGeometry relative="1" as="geometry">
              <mxPoint y="-1" as="offset" />
              <Array as="points" />
              <mxPoint x="460" y="406" as="sourcePoint" />
              <mxPoint x="460" y="334" as="targetPoint" />
            </mxGeometry>
          </mxCell>
        </UserObject>
        <UserObject label="" tags="Background" id="zy0sibjaueYdzKyYKhKY-43">
          <mxCell style="vsdxID=34;fillColor=none;gradientColor=none;strokeColor=none;strokeWidth=3;spacingTop=-3;spacingBottom=-3;spacingLeft=-3;spacingRight=-3;points=[[0,0.5,0],[1,0.5,0],[0.5,1,0],[0.5,0,0],[0.97,1,0]];labelBackgroundColor=none;rounded=1;html=1;whiteSpace=wrap;" parent="1" vertex="1">
            <mxGeometry x="130" y="804" width="101" height="76" as="geometry" />
          </mxCell>
        </UserObject>
        <mxCell id="zy0sibjaueYdzKyYKhKY-44" style="vsdxID=35;fillColor=#ffffff;gradientColor=none;shape=stencil(vZNNkoMgEIVPw1KKH1GzTjIXmBNQkSg1RCxkJianD9paJVSS3WQH3Y9uPpqH+H5oZa8QI4N39kddde1bxA+IMd21ymkfVogfEd+frVONs79dDfteBiUjc0TVcIZOakakO33ru4IYwZyWAhJw8mL/po4j5PMCcrdlO+++QBkKTS0WZYkrkLpFSwkG+VpL5E9qkTGTox4yZ7302nbLtSBnpGtUFvpkZyObKDVcleo3Ybq9mdHdhmGXMBSvITiuWEwhMI0gkmLiYxTJ6+3eUAi8jm2lKDGrIoxkrivV/2Pkz57vxSwKGlPkuIqHkXyoz0G8cUVYzOYDW2pjwLvbfGrWEAKj8+MD);strokeColor=#c54242;strokeWidth=3;spacingTop=-3;spacingBottom=-3;spacingLeft=-3;spacingRight=-3;points=[[0,0.5,0],[1,0.5,0],[0.5,1,0],[0.5,0,0]];labelBackgroundColor=none;rounded=1;html=1;whiteSpace=wrap;" parent="zy0sibjaueYdzKyYKhKY-43" vertex="1">
          <mxGeometry width="101" height="76" as="geometry" />
        </mxCell>
        <mxCell id="zy0sibjaueYdzKyYKhKY-45" value="&lt;div style=&quot;font-size: 1px&quot;&gt;&lt;p style=&quot;text-align:center;margin-left:0;margin-right:0;margin-top:0px;margin-bottom:0px;text-indent:0;vertical-align:middle;direction:ltr;&quot;&gt;&lt;font style=&quot;font-size:11.29px;font-family:Arial;color:#333333;direction:ltr;letter-spacing:0px;line-height:100%;opacity:1&quot;&gt;是否为指令？&lt;br/&gt;(以 / 开头？)&lt;/font&gt;&lt;/p&gt;&lt;/div&gt;" style="text;vsdxID=34;fillColor=none;gradientColor=none;strokeColor=none;strokeWidth=3;spacingTop=-3;spacingBottom=-3;spacingLeft=-3;spacingRight=-3;points=[[0,0.5,0],[1,0.5,0],[0.5,1,0],[0.5,0,0],[0.97,1,0]];labelBackgroundColor=none;rounded=1;html=1;whiteSpace=wrap;verticalAlign=middle;align=center;overflow=width;;html=1;" parent="zy0sibjaueYdzKyYKhKY-43" vertex="1">
          <mxGeometry x="3.17" y="2.98" width="95.25" height="69.85" as="geometry" />
        </mxCell>
        <UserObject label="" tags="Background" id="zy0sibjaueYdzKyYKhKY-46">
          <mxCell style="vsdxID=37;fillColor=none;gradientColor=none;strokeColor=none;strokeWidth=3;spacingTop=-3;spacingBottom=-3;spacingLeft=-3;spacingRight=-3;points=[[0,0.5,0],[1,0.5,0],[0.5,1,0],[0.5,0,0],[0.01,1,0],[0.51,1,0]];labelBackgroundColor=none;rounded=1;html=1;whiteSpace=wrap;" parent="1" vertex="1">
            <mxGeometry x="329" y="804" width="101" height="76" as="geometry" />
          </mxCell>
        </UserObject>
        <mxCell id="zy0sibjaueYdzKyYKhKY-47" style="vsdxID=38;fillColor=#ffffff;gradientColor=none;shape=stencil(vZNNkoMgEIVPw1KKH1GzTjIXmBNQkSg1RCxkJianD9paJVSS3WQH3Y9uPpqH+H5oZa8QI4N39kddde1bxA+IMd21ymkfVogfEd+frVONs79dDfteBiUjc0TVcIZOakakO33ru4IYwZyWAhJw8mL/po4j5PMCcrdlO+++QBkKTS0WZYkrkLpFSwkG+VpL5E9qkTGTox4yZ7302nbLtSBnpGtUFvpkZyObKDVcleo3Ybq9mdHdhmGXMBSvITiuWEwhMI0gkmLiYxTJ6+3eUAi8jm2lKDGrIoxkrivV/2Pkz57vxSwKGlPkuIqHkXyoz0G8cUVYzOYDW2pjwLvbfGrWEAKj8+MD);strokeColor=#c54242;strokeWidth=3;spacingTop=-3;spacingBottom=-3;spacingLeft=-3;spacingRight=-3;points=[[0,0.5,0],[1,0.5,0],[0.5,1,0],[0.5,0,0]];labelBackgroundColor=none;rounded=1;html=1;whiteSpace=wrap;" parent="zy0sibjaueYdzKyYKhKY-46" vertex="1">
          <mxGeometry width="101" height="76" as="geometry" />
        </mxCell>
        <mxCell id="zy0sibjaueYdzKyYKhKY-48" value="&lt;div style=&quot;font-size: 1px&quot;&gt;&lt;p style=&quot;text-align:center;margin-left:0;margin-right:0;margin-top:0px;margin-bottom:0px;text-indent:0;vertical-align:middle;direction:ltr;&quot;&gt;&lt;font style=&quot;font-size:11.29px;font-family:Arial;color:#333333;direction:ltr;letter-spacing:0px;line-height:100%;opacity:1&quot;&gt;指令格式正确？&lt;/font&gt;&lt;/p&gt;&lt;/div&gt;" style="text;vsdxID=37;fillColor=none;gradientColor=none;strokeColor=none;strokeWidth=3;spacingTop=-3;spacingBottom=-3;spacingLeft=-3;spacingRight=-3;points=[[0,0.5,0],[1,0.5,0],[0.5,1,0],[0.5,0,0],[0.01,1,0],[0.51,1,0]];labelBackgroundColor=none;rounded=1;html=1;whiteSpace=wrap;verticalAlign=middle;align=center;overflow=width;;html=1;" parent="zy0sibjaueYdzKyYKhKY-46" vertex="1">
          <mxGeometry x="3.17" y="2.98" width="95.25" height="69.85" as="geometry" />
        </mxCell>
        <UserObject label="" tags="Background" id="zy0sibjaueYdzKyYKhKY-49">
          <mxCell style="vsdxID=42;edgeStyle=none;startArrow=none;endArrow=block;startSize=5;endSize=5;strokeColor=#3a414a;spacingTop=-3;spacingBottom=-3;spacingLeft=-3;spacingRight=-3;verticalAlign=middle;html=1;labelBackgroundColor=none;rounded=1;exitX=0.5;exitY=0;exitDx=0;exitDy=0;exitPerimeter=0;entryX=0.5;entryY=1;entryDx=0;entryDy=0;entryPerimeter=0;" parent="1" source="zy0sibjaueYdzKyYKhKY-84" target="zy0sibjaueYdzKyYKhKY-12" edge="1">
            <mxGeometry relative="1" as="geometry">
              <mxPoint as="offset" />
              <Array as="points" />
              <mxPoint x="532" y="804" as="sourcePoint" />
              <mxPoint x="532" y="767" as="targetPoint" />
            </mxGeometry>
          </mxCell>
        </UserObject>
        <UserObject label="" tags="Background" id="zy0sibjaueYdzKyYKhKY-50">
          <mxCell style="vsdxID=44;fillColor=none;gradientColor=none;strokeOpacity=0;spacingTop=-3;spacingBottom=-3;spacingLeft=-3;spacingRight=-3;points=[[0,0.5,0],[1,0.5,0],[0.5,1,0],[0.5,0,0]];labelBackgroundColor=none;rounded=1;strokeColor=none;html=1;whiteSpace=wrap;" parent="1" vertex="1">
            <mxGeometry x="253" y="969" width="101" height="76" as="geometry" />
          </mxCell>
        </UserObject>
        <mxCell id="zy0sibjaueYdzKyYKhKY-51" style="vsdxID=45;fillColor=#ff8080;gradientColor=none;strokeOpacity=0;shape=stencil(vVPBcoMgFPwajjLAi1DPafoD/QKmEmVqxUHamHx90edkxGpuzQ12F5Z9zBI49rXuDBGsD959mostQ03glQhh29p4G+KKwInA8ey8qbz7bkvcdzoqBZsQU+IZPqoF0/7j3d4MYowCVzkSePLL/YyOw8wjdcWdpFJNwBtq41Wjyaw90AJQ7u/6/AWRWZIn182XD5kebJ95F3Swrk24RvvKZNEnOze6Sqj+Yky3gPnyZY1tFymKLd/NDDk9yDSDoiLNwNnOUJ4QZO1dAAV49CPyz49wlaRZjeZu8P9Zto13cii1zgEyybE3lycEedyRuJjKiDW1TYNdXvLr8kYIiw+nXw==);spacingTop=-3;spacingBottom=-3;spacingLeft=-3;spacingRight=-3;points=[[0,0.5,0],[1,0.5,0],[0.5,1,0],[0.5,0,0]];labelBackgroundColor=none;rounded=1;html=1;whiteSpace=wrap;" parent="zy0sibjaueYdzKyYKhKY-50" vertex="1">
          <mxGeometry width="101" height="76" as="geometry" />
        </mxCell>
        <mxCell id="zy0sibjaueYdzKyYKhKY-52" value="&lt;div style=&quot;font-size: 1px&quot;&gt;&lt;p style=&quot;text-align:center;margin-left:0;margin-right:0;margin-top:0px;margin-bottom:0px;text-indent:0;vertical-align:middle;direction:ltr;&quot;&gt;&lt;font style=&quot;font-size:15.52px;font-family:Arial;color:#ffffff;direction:ltr;letter-spacing:0px;line-height:100%;opacity:1&quot;&gt;合同审核&lt;/font&gt;&lt;/p&gt;&lt;/div&gt;" style="text;vsdxID=44;fillColor=none;gradientColor=none;strokeOpacity=0;spacingTop=-3;spacingBottom=-3;spacingLeft=-3;spacingRight=-3;points=[[0,0.5,0],[1,0.5,0],[0.5,1,0],[0.5,0,0]];labelBackgroundColor=none;rounded=1;strokeColor=none;html=1;whiteSpace=wrap;verticalAlign=middle;align=center;overflow=width;;html=1;" parent="zy0sibjaueYdzKyYKhKY-50" vertex="1">
          <mxGeometry x="3.17" y="2.98" width="95.25" height="69.85" as="geometry" />
        </mxCell>
        <UserObject label="" tags="Background" id="zy0sibjaueYdzKyYKhKY-53">
          <mxCell style="vsdxID=46;fillColor=none;gradientColor=none;strokeOpacity=0;spacingTop=-3;spacingBottom=-3;spacingLeft=-3;spacingRight=-3;points=[[0,0.5,0],[1,0.5,0],[0.5,1,0],[0.5,0,0],[0.2,0.67,0]];labelBackgroundColor=none;rounded=1;strokeColor=none;html=1;whiteSpace=wrap;" parent="1" vertex="1">
            <mxGeometry x="367" y="969" width="101" height="76" as="geometry" />
          </mxCell>
        </UserObject>
        <mxCell id="zy0sibjaueYdzKyYKhKY-54" style="vsdxID=47;fillColor=#ff8080;gradientColor=none;strokeOpacity=0;shape=stencil(vVPBcoMgFPwajjLAi1DPafoD/QKmEmVqxUHamHx90edkxGpuzQ12F5Z9zBI49rXuDBGsD959mostQ03glQhh29p4G+KKwInA8ey8qbz7bkvcdzoqBZsQU+IZPqoF0/7j3d4MYowCVzkSePLL/YyOw8wjdcWdpFJNwBtq41Wjyaw90AJQ7u/6/AWRWZIn182XD5kebJ95F3Swrk24RvvKZNEnOze6Sqj+Yky3gPnyZY1tFymKLd/NDDk9yDSDoiLNwNnOUJ4QZO1dAAV49CPyz49wlaRZjeZu8P9Zto13cii1zgEyybE3lycEedyRuJjKiDW1TYNdXvLr8kYIiw+nXw==);spacingTop=-3;spacingBottom=-3;spacingLeft=-3;spacingRight=-3;points=[[0,0.5,0],[1,0.5,0],[0.5,1,0],[0.5,0,0]];labelBackgroundColor=none;rounded=1;html=1;whiteSpace=wrap;" parent="zy0sibjaueYdzKyYKhKY-53" vertex="1">
          <mxGeometry width="101" height="76" as="geometry" />
        </mxCell>
        <mxCell id="zy0sibjaueYdzKyYKhKY-55" value="&lt;div style=&quot;font-size: 1px&quot;&gt;&lt;p style=&quot;text-align:center;margin-left:0;margin-right:0;margin-top:0px;margin-bottom:0px;text-indent:0;vertical-align:middle;direction:ltr;&quot;&gt;&lt;font style=&quot;font-size:15.52px;font-family:Arial;color:#ffffff;direction:ltr;letter-spacing:0px;line-height:100%;opacity:1&quot;&gt;文档纠错&lt;/font&gt;&lt;/p&gt;&lt;/div&gt;" style="text;vsdxID=46;fillColor=none;gradientColor=none;strokeOpacity=0;spacingTop=-3;spacingBottom=-3;spacingLeft=-3;spacingRight=-3;points=[[0,0.5,0],[1,0.5,0],[0.5,1,0],[0.5,0,0],[0.2,0.67,0]];labelBackgroundColor=none;rounded=1;strokeColor=none;html=1;whiteSpace=wrap;verticalAlign=middle;align=center;overflow=width;;html=1;" parent="zy0sibjaueYdzKyYKhKY-53" vertex="1">
          <mxGeometry x="3.17" y="2.98" width="95.25" height="69.85" as="geometry" />
        </mxCell>
        <UserObject label="" tags="Background" id="zy0sibjaueYdzKyYKhKY-56">
          <mxCell style="vsdxID=48;fillColor=none;gradientColor=none;strokeOpacity=0;spacingTop=-3;spacingBottom=-3;spacingLeft=-3;spacingRight=-3;points=[[0,0.5,0],[1,0.5,0],[0.5,1,0],[0.5,0,0]];labelBackgroundColor=none;rounded=1;strokeColor=none;html=1;whiteSpace=wrap;" parent="1" vertex="1">
            <mxGeometry x="481" y="969" width="101" height="76" as="geometry" />
          </mxCell>
        </UserObject>
        <mxCell id="zy0sibjaueYdzKyYKhKY-57" style="vsdxID=49;fillColor=#ff8080;gradientColor=none;strokeOpacity=0;shape=stencil(vVPBcoMgFPwajjLAi1DPafoD/QKmEmVqxUHamHx90edkxGpuzQ12F5Z9zBI49rXuDBGsD959mostQ03glQhh29p4G+KKwInA8ey8qbz7bkvcdzoqBZsQU+IZPqoF0/7j3d4MYowCVzkSePLL/YyOw8wjdcWdpFJNwBtq41Wjyaw90AJQ7u/6/AWRWZIn182XD5kebJ95F3Swrk24RvvKZNEnOze6Sqj+Yky3gPnyZY1tFymKLd/NDDk9yDSDoiLNwNnOUJ4QZO1dAAV49CPyz49wlaRZjeZu8P9Zto13cii1zgEyybE3lycEedyRuJjKiDW1TYNdXvLr8kYIiw+nXw==);spacingTop=-3;spacingBottom=-3;spacingLeft=-3;spacingRight=-3;points=[[0,0.5,0],[1,0.5,0],[0.5,1,0],[0.5,0,0]];labelBackgroundColor=none;rounded=1;html=1;whiteSpace=wrap;" parent="zy0sibjaueYdzKyYKhKY-56" vertex="1">
          <mxGeometry width="101" height="76" as="geometry" />
        </mxCell>
        <mxCell id="zy0sibjaueYdzKyYKhKY-58" value="&lt;div style=&quot;font-size: 1px&quot;&gt;&lt;p style=&quot;text-align:center;margin-left:0;margin-right:0;margin-top:0px;margin-bottom:0px;text-indent:0;vertical-align:middle;direction:ltr;&quot;&gt;&lt;font style=&quot;font-size:14.11px;font-family:Arial;color:#ffffff;direction:ltr;letter-spacing:0px;line-height:100%;opacity:1&quot;&gt;“不支持的命令”&lt;/font&gt;&lt;/p&gt;&lt;/div&gt;" style="text;vsdxID=48;fillColor=none;gradientColor=none;strokeOpacity=0;spacingTop=-3;spacingBottom=-3;spacingLeft=-3;spacingRight=-3;points=[[0,0.5,0],[1,0.5,0],[0.5,1,0],[0.5,0,0]];labelBackgroundColor=none;rounded=1;strokeColor=none;html=1;whiteSpace=wrap;verticalAlign=middle;align=center;overflow=width;;html=1;" parent="zy0sibjaueYdzKyYKhKY-56" vertex="1">
          <mxGeometry x="3.17" y="2.98" width="95.25" height="69.85" as="geometry" />
        </mxCell>
        <UserObject label="" tags="Background" id="zy0sibjaueYdzKyYKhKY-59">
          <mxCell style="vsdxID=50;fillColor=none;gradientColor=none;strokeColor=none;spacingTop=-3;spacingBottom=-3;spacingLeft=-3;spacingRight=-3;points=[[0,0.5,0],[1,0.5,0],[0.5,1,0],[0.5,0,0],[0,-3.07,0],[0.14,-0.25,0],[1.54,1.05,0],[11.76,-0.25,0]];labelBackgroundColor=none;rounded=1;html=1;whiteSpace=wrap;" parent="1" vertex="1">
            <mxGeometry x="373" y="931" width="12" height="12" as="geometry" />
          </mxCell>
        </UserObject>
        <mxCell id="zy0sibjaueYdzKyYKhKY-60" style="vsdxID=51;fillColor=#ffffff;gradientColor=none;shape=stencil(hVLRDoIwDPyavZLSSvDVoP6AX0BgyiKCGaDg1zsoUTYg8NTerty1OUFRlcVPKRCqWpd3+VZpnQk6CkRVZFKr2lSCToKia6nlTZdNkXL/jA0TYUBkyjN+z0aIdXJRH8kYeOSHAT/w5KN89YrtOAPAjx33Abdn5iaNZrLvskcgDL0AGWpxBnXojLVkqUBHNmGQhcOCMqK329va/7+OMmCrTr2RzaD5souqzraDCZh8O9vA1KTtaW3xLQPTY9qeWve2HW6YJHdg7QqmHuLFwVN5zun8pcIUbhwNxFGm0xc=);strokeColor=#3a414a;spacingTop=-3;spacingBottom=-3;spacingLeft=-3;spacingRight=-3;points=[[0,0.5,0],[1,0.5,0],[0.5,1,0],[0.5,0,0]];labelBackgroundColor=none;rounded=1;html=1;whiteSpace=wrap;" parent="zy0sibjaueYdzKyYKhKY-59" vertex="1">
          <mxGeometry width="12" height="12" as="geometry" />
        </mxCell>
        <UserObject label="" tags="Background" id="zy0sibjaueYdzKyYKhKY-61">
          <mxCell style="vsdxID=52;edgeStyle=none;startArrow=none;endArrow=block;startSize=5;endSize=5;strokeColor=#3a414a;spacingTop=-3;spacingBottom=-3;spacingLeft=-3;spacingRight=-3;verticalAlign=middle;html=1;labelBackgroundColor=none;rounded=1;" parent="1" edge="1">
            <mxGeometry relative="1" as="geometry">
              <mxPoint x="16" y="15" as="offset" />
              <Array as="points">
                <mxPoint x="303.48" y="937" />
              </Array>
              <mxPoint x="373" y="937" as="sourcePoint" />
              <mxPoint x="304" y="969" as="targetPoint" />
            </mxGeometry>
          </mxCell>
        </UserObject>
        <UserObject label="" tags="Background" id="zy0sibjaueYdzKyYKhKY-62">
          <mxCell style="vsdxID=53;edgeStyle=none;startArrow=none;endArrow=block;startSize=5;endSize=5;strokeColor=#3a414a;spacingTop=-3;spacingBottom=-3;spacingLeft=-3;spacingRight=-3;verticalAlign=middle;html=1;labelBackgroundColor=none;rounded=1;" parent="1" edge="1">
            <mxGeometry relative="1" as="geometry">
              <mxPoint y="-1" as="offset" />
              <Array as="points">
                <mxPoint x="380" y="956.58" />
                <mxPoint x="419.12" y="956.58" />
              </Array>
              <mxPoint x="380" y="944" as="sourcePoint" />
              <mxPoint x="419" y="969" as="targetPoint" />
            </mxGeometry>
          </mxCell>
        </UserObject>
        <UserObject label="" tags="Background" id="zy0sibjaueYdzKyYKhKY-63">
          <mxCell style="vsdxID=54;edgeStyle=none;startArrow=none;endArrow=block;startSize=5;endSize=5;strokeColor=#3a414a;spacingTop=-3;spacingBottom=-3;spacingLeft=-3;spacingRight=-3;verticalAlign=middle;html=1;labelBackgroundColor=none;rounded=1;" parent="1" edge="1">
            <mxGeometry relative="1" as="geometry">
              <mxPoint x="-17" y="15" as="offset" />
              <Array as="points">
                <mxPoint x="531.74" y="937" />
              </Array>
              <mxPoint x="386" y="937" as="sourcePoint" />
              <mxPoint x="532" y="969" as="targetPoint" />
            </mxGeometry>
          </mxCell>
        </UserObject>
        <UserObject label="" tags="Background" id="zy0sibjaueYdzKyYKhKY-64">
          <mxCell style="vsdxID=55;fillColor=none;gradientColor=none;strokeOpacity=0;spacingTop=-3;spacingBottom=-3;spacingLeft=-3;spacingRight=-3;points=[[0,0.5,0],[1,0.5,0],[0.5,1,0],[0.5,0,0]];labelBackgroundColor=none;rounded=1;strokeColor=none;html=1;whiteSpace=wrap;" parent="1" vertex="1">
            <mxGeometry x="367" y="1109" width="101" height="50" as="geometry" />
          </mxCell>
        </UserObject>
        <mxCell id="zy0sibjaueYdzKyYKhKY-65" style="vsdxID=56;fillColor=#d2d3d5;gradientColor=none;strokeOpacity=0;shape=stencil(jZPRjoIwEEW/pq/NdGYVeNy4+gN+AZEqzbJgKir69SLThrbumuWpvXOHOdwMglanujxqgXDqbfetr6bqa0FfAtG0tbamH0+C1oJW+87qg+3ObcX3Yzk6ESZFV9yjnm6E0u625q5ZA0kqW3CBO3+6y3PiwPUcuHZz9um2YefubNmquFgoCUtnV6EfBnQE4F/nBERJWRE8DmWgtMEJi4AAPn+BmDuckGVyiTFGCJqS+cl5Mtgb5smNaYOgMA4qsr9S5rL4iDFnAIyi84DhZ1Ds+G80STB/Zo8vjDGSn58CvA/o3SaNh2lheZVN0/C+h/V0wUeJfw5aPwA=);spacingTop=-3;spacingBottom=-3;spacingLeft=-3;spacingRight=-3;points=[[0,0.5,0],[1,0.5,0],[0.5,1,0],[0.5,0,0]];labelBackgroundColor=none;rounded=1;html=1;whiteSpace=wrap;" parent="zy0sibjaueYdzKyYKhKY-64" vertex="1">
          <mxGeometry width="101" height="50" as="geometry" />
        </mxCell>
        <mxCell id="zy0sibjaueYdzKyYKhKY-66" value="&lt;div style=&quot;font-size: 1px&quot;&gt;&lt;p style=&quot;text-align:center;margin-left:0;margin-right:0;margin-top:0px;margin-bottom:0px;text-indent:0;vertical-align:middle;direction:ltr;&quot;&gt;&lt;font style=&quot;font-size:11.29px;font-family:Arial;color:#333333;direction:ltr;letter-spacing:0px;line-height:100%;opacity:1&quot;&gt;pause&lt;/font&gt;&lt;/p&gt;&lt;/div&gt;&lt;div&gt;暂停&lt;br&gt;&lt;/div&gt;" style="text;vsdxID=55;fillColor=none;gradientColor=none;strokeOpacity=0;spacingTop=-3;spacingBottom=-3;spacingLeft=-3;spacingRight=-3;points=[[0,0.5,0],[1,0.5,0],[0.5,1,0],[0.5,0,0]];labelBackgroundColor=none;rounded=1;strokeColor=none;html=1;whiteSpace=wrap;verticalAlign=middle;align=center;overflow=width;;html=1;" parent="zy0sibjaueYdzKyYKhKY-64" vertex="1">
          <mxGeometry x="3.17" y="2.38" width="95.25" height="44.45" as="geometry" />
        </mxCell>
        <UserObject label="" tags="Background" id="zy0sibjaueYdzKyYKhKY-67">
          <mxCell style="vsdxID=57;edgeStyle=none;startArrow=none;endArrow=block;startSize=5;endSize=5;strokeColor=#3a414a;spacingTop=-3;spacingBottom=-3;spacingLeft=-3;spacingRight=-3;verticalAlign=middle;html=1;labelBackgroundColor=none;rounded=1;" parent="1" edge="1">
            <mxGeometry relative="1" as="geometry">
              <mxPoint as="offset" />
              <Array as="points">
                <mxPoint x="532" y="1076.75" />
                <mxPoint x="417.7" y="1076.75" />
              </Array>
              <mxPoint x="532" y="1045" as="sourcePoint" />
              <mxPoint x="418" y="1109" as="targetPoint" />
            </mxGeometry>
          </mxCell>
        </UserObject>
        <UserObject label="" tags="Background" id="zy0sibjaueYdzKyYKhKY-68">
          <mxCell style="vsdxID=59;edgeStyle=none;startArrow=none;endArrow=block;startSize=5;endSize=5;strokeColor=#3a414a;spacingTop=-3;spacingBottom=-3;spacingLeft=-3;spacingRight=-3;verticalAlign=middle;html=1;labelBackgroundColor=none;rounded=1;" parent="1" edge="1">
            <mxGeometry relative="1" as="geometry">
              <mxPoint x="-1" as="offset" />
              <Array as="points">
                <mxPoint x="304" y="1076.75" />
                <mxPoint x="418.3" y="1076.75" />
              </Array>
              <mxPoint x="304" y="1045" as="sourcePoint" />
              <mxPoint x="418" y="1109" as="targetPoint" />
            </mxGeometry>
          </mxCell>
        </UserObject>
        <UserObject label="" tags="Background" id="zy0sibjaueYdzKyYKhKY-69">
          <mxCell style="vsdxID=61;fillColor=none;gradientColor=none;strokeOpacity=0;spacingTop=-3;spacingBottom=-3;spacingLeft=-3;spacingRight=-3;points=[[0,0.5,0],[1,0.5,0],[0.5,1,0],[0.5,0,0]];labelBackgroundColor=none;rounded=1;strokeColor=none;html=1;whiteSpace=wrap;" parent="1" vertex="1">
            <mxGeometry x="130" y="969" width="101" height="76" as="geometry" />
          </mxCell>
        </UserObject>
        <mxCell id="zy0sibjaueYdzKyYKhKY-70" style="vsdxID=62;fillColor=#ff8080;gradientColor=none;strokeOpacity=0;shape=stencil(vVPBcoMgFPwajjLAi1DPafoD/QKmEmVqxUHamHx90edkxGpuzQ12F5Z9zBI49rXuDBGsD959mostQ03glQhh29p4G+KKwInA8ey8qbz7bkvcdzoqBZsQU+IZPqoF0/7j3d4MYowCVzkSePLL/YyOw8wjdcWdpFJNwBtq41Wjyaw90AJQ7u/6/AWRWZIn182XD5kebJ95F3Swrk24RvvKZNEnOze6Sqj+Yky3gPnyZY1tFymKLd/NDDk9yDSDoiLNwNnOUJ4QZO1dAAV49CPyz49wlaRZjeZu8P9Zto13cii1zgEyybE3lycEedyRuJjKiDW1TYNdXvLr8kYIiw+nXw==);spacingTop=-3;spacingBottom=-3;spacingLeft=-3;spacingRight=-3;points=[[0,0.5,0],[1,0.5,0],[0.5,1,0],[0.5,0,0]];labelBackgroundColor=none;rounded=1;html=1;whiteSpace=wrap;" parent="zy0sibjaueYdzKyYKhKY-69" vertex="1">
          <mxGeometry width="101" height="76" as="geometry" />
        </mxCell>
        <mxCell id="zy0sibjaueYdzKyYKhKY-71" value="&lt;div style=&quot;font-size: 1px&quot;&gt;&lt;p style=&quot;text-align:center;margin-left:0;margin-right:0;margin-top:0px;margin-bottom:0px;text-indent:0;vertical-align:middle;direction:ltr;&quot;&gt;&lt;font style=&quot;font-size:15.52px;font-family:Arial;color:#ffffff;direction:ltr;letter-spacing:0px;line-height:100%;opacity:1&quot;&gt;文本生成&lt;/font&gt;&lt;/p&gt;&lt;/div&gt;" style="text;vsdxID=61;fillColor=none;gradientColor=none;strokeOpacity=0;spacingTop=-3;spacingBottom=-3;spacingLeft=-3;spacingRight=-3;points=[[0,0.5,0],[1,0.5,0],[0.5,1,0],[0.5,0,0]];labelBackgroundColor=none;rounded=1;strokeColor=none;html=1;whiteSpace=wrap;verticalAlign=middle;align=center;overflow=width;;html=1;" parent="zy0sibjaueYdzKyYKhKY-69" vertex="1">
          <mxGeometry x="3.17" y="2.98" width="95.25" height="69.85" as="geometry" />
        </mxCell>
        <UserObject label="" tags="Background" id="zy0sibjaueYdzKyYKhKY-72">
          <mxCell style="vsdxID=63;fillColor=none;gradientColor=none;strokeColor=none;strokeWidth=3;spacingTop=-3;spacingBottom=-3;spacingLeft=-3;spacingRight=-3;points=[[0,0.5,0],[1,0.5,0],[0.5,1,0],[0.5,0,0],[0.74,0.5,0]];labelBackgroundColor=none;rounded=1;html=1;whiteSpace=wrap;" parent="1" vertex="1">
            <mxGeometry x="130" y="1083" width="101" height="76" as="geometry" />
          </mxCell>
        </UserObject>
        <mxCell id="zy0sibjaueYdzKyYKhKY-73" style="vsdxID=64;fillColor=#ffffff;gradientColor=none;shape=stencil(vZNNkoMgEIVPw1KKH1GzTjIXmBNQkSg1RCxkJianD9paJVSS3WQH3Y9uPpqH+H5oZa8QI4N39kddde1bxA+IMd21ymkfVogfEd+frVONs79dDfteBiUjc0TVcIZOakakO33ru4IYwZyWAhJw8mL/po4j5PMCcrdlO+++QBkKTS0WZYkrkLpFSwkG+VpL5E9qkTGTox4yZ7302nbLtSBnpGtUFvpkZyObKDVcleo3Ybq9mdHdhmGXMBSvITiuWEwhMI0gkmLiYxTJ6+3eUAi8jm2lKDGrIoxkrivV/2Pkz57vxSwKGlPkuIqHkXyoz0G8cUVYzOYDW2pjwLvbfGrWEAKj8+MD);strokeColor=#c54242;strokeWidth=3;spacingTop=-3;spacingBottom=-3;spacingLeft=-3;spacingRight=-3;points=[[0,0.5,0],[1,0.5,0],[0.5,1,0],[0.5,0,0]];labelBackgroundColor=none;rounded=1;html=1;whiteSpace=wrap;" parent="zy0sibjaueYdzKyYKhKY-72" vertex="1">
          <mxGeometry width="101" height="76" as="geometry" />
        </mxCell>
        <mxCell id="zy0sibjaueYdzKyYKhKY-74" value="&lt;div style=&quot;font-size: 1px&quot;&gt;&lt;p style=&quot;text-align:center;margin-left:0;margin-right:0;margin-top:0px;margin-bottom:0px;text-indent:0;vertical-align:middle;direction:ltr;&quot;&gt;&lt;font style=&quot;font-size:12.7px;font-family:Arial;color:#333333;direction:ltr;letter-spacing:0px;line-height:100%;opacity:1&quot;&gt;对话数 &amp;gt; 20?&lt;/font&gt;&lt;/p&gt;&lt;/div&gt;" style="text;vsdxID=63;fillColor=none;gradientColor=none;strokeColor=none;strokeWidth=3;spacingTop=-3;spacingBottom=-3;spacingLeft=-3;spacingRight=-3;points=[[0,0.5,0],[1,0.5,0],[0.5,1,0],[0.5,0,0],[0.74,0.5,0]];labelBackgroundColor=none;rounded=1;html=1;whiteSpace=wrap;verticalAlign=middle;align=center;overflow=width;;html=1;" parent="zy0sibjaueYdzKyYKhKY-72" vertex="1">
          <mxGeometry x="3.17" y="2.98" width="95.25" height="69.85" as="geometry" />
        </mxCell>
        <UserObject label="" tags="Background" id="zy0sibjaueYdzKyYKhKY-75">
          <mxCell style="vsdxID=67;fillColor=none;gradientColor=none;strokeOpacity=0;spacingTop=-3;spacingBottom=-3;spacingLeft=-3;spacingRight=-3;points=[[0,0.5,0],[1,0.5,0],[0.5,1,0],[0.5,0,0],[0.4,-0.5,0]];labelBackgroundColor=none;rounded=1;strokeColor=none;html=1;whiteSpace=wrap;" parent="1" vertex="1">
            <mxGeometry x="253" y="1197" width="101" height="50" as="geometry" />
          </mxCell>
        </UserObject>
        <mxCell id="zy0sibjaueYdzKyYKhKY-76" style="vsdxID=68;fillColor=#d2d3d5;gradientColor=none;strokeOpacity=0;shape=stencil(jZPRjoIwEEW/pq/NdGYVeNy4+gN+AZEqzbJgKir69SLThrbumuWpvXOHOdwMglanujxqgXDqbfetr6bqa0FfAtG0tbamH0+C1oJW+87qg+3ObcX3Yzk6ESZFV9yjnm6E0u625q5ZA0kqW3CBO3+6y3PiwPUcuHZz9um2YefubNmquFgoCUtnV6EfBnQE4F/nBERJWRE8DmWgtMEJi4AAPn+BmDuckGVyiTFGCJqS+cl5Mtgb5smNaYOgMA4qsr9S5rL4iDFnAIyi84DhZ1Ds+G80STB/Zo8vjDGSn58CvA/o3SaNh2lheZVN0/C+h/V0wUeJfw5aPwA=);spacingTop=-3;spacingBottom=-3;spacingLeft=-3;spacingRight=-3;points=[[0,0.5,0],[1,0.5,0],[0.5,1,0],[0.5,0,0]];labelBackgroundColor=none;rounded=1;html=1;whiteSpace=wrap;" parent="zy0sibjaueYdzKyYKhKY-75" vertex="1">
          <mxGeometry width="101" height="50" as="geometry" />
        </mxCell>
        <mxCell id="zy0sibjaueYdzKyYKhKY-77" value="&lt;div style=&quot;font-size: 1px&quot;&gt;&lt;p style=&quot;text-align:center;margin-left:0;margin-right:0;margin-top:0px;margin-bottom:0px;text-indent:0;vertical-align:middle;direction:ltr;&quot;&gt;&lt;font style=&quot;font-size:11.29px;font-family:Arial;color:#333333;direction:ltr;letter-spacing:0px;line-height:100%;opacity:1&quot;&gt;close websocket&lt;/font&gt;&lt;/p&gt;&lt;/div&gt;&lt;div&gt;后端结束&lt;br&gt;&lt;/div&gt;" style="text;vsdxID=67;fillColor=none;gradientColor=none;strokeOpacity=0;spacingTop=-3;spacingBottom=-3;spacingLeft=-3;spacingRight=-3;points=[[0,0.5,0],[1,0.5,0],[0.5,1,0],[0.5,0,0],[0.4,-0.5,0]];labelBackgroundColor=none;rounded=1;strokeColor=none;html=1;whiteSpace=wrap;verticalAlign=middle;align=center;overflow=width;;html=1;" parent="zy0sibjaueYdzKyYKhKY-75" vertex="1">
          <mxGeometry x="3.17" y="2.38" width="95.25" height="44.45" as="geometry" />
        </mxCell>
        <UserObject label="" tags="Background" id="zy0sibjaueYdzKyYKhKY-78">
          <mxCell style="vsdxID=70;fillColor=none;gradientColor=none;strokeOpacity=0;spacingTop=-3;spacingBottom=-3;spacingLeft=-3;spacingRight=-3;points=[[0,0.5,0],[1,0.5,0],[0.5,1,0],[0.5,0,0]];labelBackgroundColor=none;rounded=1;strokeColor=none;html=1;whiteSpace=wrap;" parent="1" vertex="1">
            <mxGeometry x="130" y="1197" width="101" height="50" as="geometry" />
          </mxCell>
        </UserObject>
        <mxCell id="zy0sibjaueYdzKyYKhKY-79" style="vsdxID=71;fillColor=#d2d3d5;gradientColor=none;strokeOpacity=0;shape=stencil(jZPRjoIwEEW/pq/NdGYVeNy4+gN+AZEqzbJgKir69SLThrbumuWpvXOHOdwMglanujxqgXDqbfetr6bqa0FfAtG0tbamH0+C1oJW+87qg+3ObcX3Yzk6ESZFV9yjnm6E0u625q5ZA0kqW3CBO3+6y3PiwPUcuHZz9um2YefubNmquFgoCUtnV6EfBnQE4F/nBERJWRE8DmWgtMEJi4AAPn+BmDuckGVyiTFGCJqS+cl5Mtgb5smNaYOgMA4qsr9S5rL4iDFnAIyi84DhZ1Ds+G80STB/Zo8vjDGSn58CvA/o3SaNh2lheZVN0/C+h/V0wUeJfw5aPwA=);spacingTop=-3;spacingBottom=-3;spacingLeft=-3;spacingRight=-3;points=[[0,0.5,0],[1,0.5,0],[0.5,1,0],[0.5,0,0]];labelBackgroundColor=none;rounded=1;html=1;whiteSpace=wrap;" parent="zy0sibjaueYdzKyYKhKY-78" vertex="1">
          <mxGeometry width="101" height="50" as="geometry" />
        </mxCell>
        <mxCell id="zy0sibjaueYdzKyYKhKY-80" value="&lt;div style=&quot;font-size: 1px&quot;&gt;&lt;p style=&quot;text-align:center;margin-left:0;margin-right:0;margin-top:0px;margin-bottom:0px;text-indent:0;vertical-align:middle;direction:ltr;&quot;&gt;&lt;font style=&quot;font-size:11.29px;font-family:Arial;color:#333333;direction:ltr;letter-spacing:0px;line-height:100%;opacity:1&quot;&gt;save history &amp;amp; return&lt;/font&gt;&lt;/p&gt;&lt;/div&gt;&lt;div&gt;后端结束&lt;br&gt;&lt;/div&gt;" style="text;vsdxID=70;fillColor=none;gradientColor=none;strokeOpacity=0;spacingTop=-3;spacingBottom=-3;spacingLeft=-3;spacingRight=-3;points=[[0,0.5,0],[1,0.5,0],[0.5,1,0],[0.5,0,0]];labelBackgroundColor=none;rounded=1;strokeColor=none;html=1;whiteSpace=wrap;verticalAlign=middle;align=center;overflow=width;;html=1;" parent="zy0sibjaueYdzKyYKhKY-78" vertex="1">
          <mxGeometry x="3.17" y="2.38" width="95.25" height="44.45" as="geometry" />
        </mxCell>
        <mxCell id="zy0sibjaueYdzKyYKhKY-81" style="edgeStyle=orthogonalEdgeStyle;rounded=0;orthogonalLoop=1;jettySize=auto;html=1;entryX=0.5;entryY=0;entryDx=0;entryDy=0;entryPerimeter=0;exitX=0.496;exitY=1.024;exitDx=0;exitDy=0;exitPerimeter=0;" parent="1" source="zy0sibjaueYdzKyYKhKY-53" target="zy0sibjaueYdzKyYKhKY-64" edge="1">
          <mxGeometry relative="1" as="geometry">
            <mxPoint x="418" y="1066" as="sourcePoint" />
          </mxGeometry>
        </mxCell>
        <UserObject label="" tags="Background" id="zy0sibjaueYdzKyYKhKY-82">
          <mxCell style="vsdxID=40;fillColor=none;gradientColor=none;strokeOpacity=0;spacingTop=-3;spacingBottom=-3;spacingLeft=-3;spacingRight=-3;points=[[0,0.5,0],[1,0.5,0],[0.5,1,0],[0.5,0,0]];labelBackgroundColor=none;rounded=1;strokeColor=none;html=1;whiteSpace=wrap;" parent="1" vertex="1">
            <mxGeometry x="491" y="804" width="101" height="76" as="geometry" />
          </mxCell>
        </UserObject>
        <mxCell id="zy0sibjaueYdzKyYKhKY-83" style="vsdxID=41;fillColor=#ff8080;gradientColor=none;strokeOpacity=0;shape=stencil(vVPBcoMgFPwajjLAi1DPafoD/QKmEmVqxUHamHx90edkxGpuzQ12F5Z9zBI49rXuDBGsD959mostQ03glQhh29p4G+KKwInA8ey8qbz7bkvcdzoqBZsQU+IZPqoF0/7j3d4MYowCVzkSePLL/YyOw8wjdcWdpFJNwBtq41Wjyaw90AJQ7u/6/AWRWZIn182XD5kebJ95F3Swrk24RvvKZNEnOze6Sqj+Yky3gPnyZY1tFymKLd/NDDk9yDSDoiLNwNnOUJ4QZO1dAAV49CPyz49wlaRZjeZu8P9Zto13cii1zgEyybE3lycEedyRuJjKiDW1TYNdXvLr8kYIiw+nXw==);spacingTop=-3;spacingBottom=-3;spacingLeft=-3;spacingRight=-3;points=[[0,0.5,0],[1,0.5,0],[0.5,1,0],[0.5,0,0]];labelBackgroundColor=none;rounded=1;html=1;whiteSpace=wrap;" parent="zy0sibjaueYdzKyYKhKY-82" vertex="1">
          <mxGeometry width="101" height="76" as="geometry" />
        </mxCell>
        <mxCell id="zy0sibjaueYdzKyYKhKY-84" value="&lt;div style=&quot;font-size: 1px&quot;&gt;&lt;p style=&quot;text-align:center;margin-left:0;margin-right:0;margin-top:0px;margin-bottom:0px;text-indent:0;vertical-align:middle;direction:ltr;&quot;&gt;&lt;font style=&quot;font-size:12.7px;font-family:Arial;color:#ffffff;direction:ltr;letter-spacing:0px;line-height:100%;opacity:1&quot;&gt;“指令格式错误”&lt;/font&gt;&lt;/p&gt;&lt;/div&gt;" style="text;vsdxID=40;fillColor=none;gradientColor=none;strokeOpacity=0;spacingTop=-3;spacingBottom=-3;spacingLeft=-3;spacingRight=-3;points=[[0,0.5,0],[1,0.5,0],[0.5,1,0],[0.5,0,0]];labelBackgroundColor=none;rounded=1;strokeColor=none;html=1;whiteSpace=wrap;verticalAlign=middle;align=center;overflow=width;;html=1;" parent="zy0sibjaueYdzKyYKhKY-82" vertex="1">
          <mxGeometry x="3.17" y="2.98" width="95.25" height="69.85" as="geometry" />
        </mxCell>
        <mxCell id="zy0sibjaueYdzKyYKhKY-85" style="edgeStyle=orthogonalEdgeStyle;rounded=0;orthogonalLoop=1;jettySize=auto;html=1;entryX=0.5;entryY=0;entryDx=0;entryDy=0;entryPerimeter=0;" parent="1" source="zy0sibjaueYdzKyYKhKY-11" target="zy0sibjaueYdzKyYKhKY-43" edge="1">
          <mxGeometry relative="1" as="geometry" />
        </mxCell>
        <mxCell id="zy0sibjaueYdzKyYKhKY-86" value="Yes" style="edgeLabel;html=1;align=center;verticalAlign=middle;resizable=0;points=[];" parent="zy0sibjaueYdzKyYKhKY-85" vertex="1" connectable="0">
          <mxGeometry x="-0.1562" y="-1" relative="1" as="geometry">
            <mxPoint as="offset" />
          </mxGeometry>
        </mxCell>
        <mxCell id="zy0sibjaueYdzKyYKhKY-87" style="edgeStyle=orthogonalEdgeStyle;rounded=0;orthogonalLoop=1;jettySize=auto;html=1;entryX=0.5;entryY=0;entryDx=0;entryDy=0;entryPerimeter=0;" parent="1" source="zy0sibjaueYdzKyYKhKY-35" target="zy0sibjaueYdzKyYKhKY-43" edge="1">
          <mxGeometry relative="1" as="geometry">
            <Array as="points">
              <mxPoint x="464" y="750" />
              <mxPoint x="181" y="750" />
            </Array>
          </mxGeometry>
        </mxCell>
        <mxCell id="zy0sibjaueYdzKyYKhKY-88" value="Yes" style="edgeLabel;html=1;align=center;verticalAlign=middle;resizable=0;points=[];" parent="zy0sibjaueYdzKyYKhKY-87" vertex="1" connectable="0">
          <mxGeometry x="0.0219" relative="1" as="geometry">
            <mxPoint as="offset" />
          </mxGeometry>
        </mxCell>
        <mxCell id="zy0sibjaueYdzKyYKhKY-89" style="edgeStyle=orthogonalEdgeStyle;rounded=0;orthogonalLoop=1;jettySize=auto;html=1;entryX=0;entryY=0.5;entryDx=0;entryDy=0;entryPerimeter=0;" parent="1" source="zy0sibjaueYdzKyYKhKY-45" target="zy0sibjaueYdzKyYKhKY-47" edge="1">
          <mxGeometry relative="1" as="geometry" />
        </mxCell>
        <mxCell id="zy0sibjaueYdzKyYKhKY-90" value="Yes" style="edgeLabel;html=1;align=center;verticalAlign=middle;resizable=0;points=[];" parent="zy0sibjaueYdzKyYKhKY-89" vertex="1" connectable="0">
          <mxGeometry x="-0.2032" relative="1" as="geometry">
            <mxPoint as="offset" />
          </mxGeometry>
        </mxCell>
        <mxCell id="zy0sibjaueYdzKyYKhKY-91" style="edgeStyle=orthogonalEdgeStyle;rounded=0;orthogonalLoop=1;jettySize=auto;html=1;entryX=0.5;entryY=1;entryDx=0;entryDy=0;entryPerimeter=0;" parent="1" source="zy0sibjaueYdzKyYKhKY-35" target="zy0sibjaueYdzKyYKhKY-36" edge="1">
          <mxGeometry relative="1" as="geometry" />
        </mxCell>
        <mxCell id="zy0sibjaueYdzKyYKhKY-92" value="No" style="text;html=1;strokeColor=none;fillColor=none;align=center;verticalAlign=middle;whiteSpace=wrap;rounded=0;" parent="1" vertex="1">
          <mxGeometry x="450" y="528" width="60" height="30" as="geometry" />
        </mxCell>
        <mxCell id="zy0sibjaueYdzKyYKhKY-93" style="edgeStyle=orthogonalEdgeStyle;rounded=0;orthogonalLoop=1;jettySize=auto;html=1;entryX=0.5;entryY=0;entryDx=0;entryDy=0;entryPerimeter=0;" parent="1" source="zy0sibjaueYdzKyYKhKY-45" target="zy0sibjaueYdzKyYKhKY-70" edge="1">
          <mxGeometry relative="1" as="geometry" />
        </mxCell>
        <mxCell id="zy0sibjaueYdzKyYKhKY-94" value="No" style="text;html=1;strokeColor=none;fillColor=none;align=center;verticalAlign=middle;whiteSpace=wrap;rounded=0;" parent="1" vertex="1">
          <mxGeometry x="171" y="901" width="60" height="30" as="geometry" />
        </mxCell>
        <mxCell id="zy0sibjaueYdzKyYKhKY-95" style="edgeStyle=orthogonalEdgeStyle;rounded=0;orthogonalLoop=1;jettySize=auto;html=1;entryX=0;entryY=0.5;entryDx=0;entryDy=0;entryPerimeter=0;" parent="1" source="zy0sibjaueYdzKyYKhKY-48" target="zy0sibjaueYdzKyYKhKY-82" edge="1">
          <mxGeometry relative="1" as="geometry" />
        </mxCell>
        <mxCell id="zy0sibjaueYdzKyYKhKY-96" value="No" style="text;html=1;strokeColor=none;fillColor=none;align=center;verticalAlign=middle;whiteSpace=wrap;rounded=0;" parent="1" vertex="1">
          <mxGeometry x="430" y="820" width="60" height="30" as="geometry" />
        </mxCell>
        <mxCell id="zy0sibjaueYdzKyYKhKY-97" style="edgeStyle=orthogonalEdgeStyle;rounded=0;orthogonalLoop=1;jettySize=auto;html=1;entryX=0.5;entryY=0;entryDx=0;entryDy=0;entryPerimeter=0;" parent="1" source="zy0sibjaueYdzKyYKhKY-48" target="zy0sibjaueYdzKyYKhKY-59" edge="1">
          <mxGeometry relative="1" as="geometry" />
        </mxCell>
        <mxCell id="zy0sibjaueYdzKyYKhKY-98" value="Yes" style="text;html=1;strokeColor=none;fillColor=none;align=center;verticalAlign=middle;whiteSpace=wrap;rounded=0;" parent="1" vertex="1">
          <mxGeometry x="360" y="890" width="60" height="30" as="geometry" />
        </mxCell>
        <mxCell id="zy0sibjaueYdzKyYKhKY-99" style="edgeStyle=orthogonalEdgeStyle;rounded=0;orthogonalLoop=1;jettySize=auto;html=1;entryX=0.5;entryY=0;entryDx=0;entryDy=0;entryPerimeter=0;" parent="1" source="zy0sibjaueYdzKyYKhKY-74" target="zy0sibjaueYdzKyYKhKY-75" edge="1">
          <mxGeometry relative="1" as="geometry" />
        </mxCell>
        <mxCell id="zy0sibjaueYdzKyYKhKY-100" value="Yes" style="edgeLabel;html=1;align=center;verticalAlign=middle;resizable=0;points=[];" parent="zy0sibjaueYdzKyYKhKY-99" vertex="1" connectable="0">
          <mxGeometry x="-0.0871" relative="1" as="geometry">
            <mxPoint as="offset" />
          </mxGeometry>
        </mxCell>
        <mxCell id="zy0sibjaueYdzKyYKhKY-101" style="edgeStyle=orthogonalEdgeStyle;rounded=0;orthogonalLoop=1;jettySize=auto;html=1;entryX=0.5;entryY=0;entryDx=0;entryDy=0;entryPerimeter=0;" parent="1" source="zy0sibjaueYdzKyYKhKY-74" target="zy0sibjaueYdzKyYKhKY-78" edge="1">
          <mxGeometry relative="1" as="geometry" />
        </mxCell>
        <mxCell id="zy0sibjaueYdzKyYKhKY-102" value="No" style="text;html=1;strokeColor=none;fillColor=none;align=center;verticalAlign=middle;whiteSpace=wrap;rounded=0;" parent="1" vertex="1">
          <mxGeometry x="170" y="1159" width="60" height="30" as="geometry" />
        </mxCell>
        <mxCell id="zy0sibjaueYdzKyYKhKY-103" value="Reply" style="text;html=1;strokeColor=none;fillColor=none;align=center;verticalAlign=middle;whiteSpace=wrap;rounded=0;" parent="1" vertex="1">
          <mxGeometry x="501.5" y="429" width="60" height="30" as="geometry" />
        </mxCell>
        <mxCell id="zy0sibjaueYdzKyYKhKY-104" value="Reply" style="text;html=1;strokeColor=none;fillColor=none;align=center;verticalAlign=middle;whiteSpace=wrap;rounded=0;" parent="1" vertex="1">
          <mxGeometry x="580" y="827" width="60" height="30" as="geometry" />
        </mxCell>
        <mxCell id="zy0sibjaueYdzKyYKhKY-105" value="Reply" style="text;html=1;strokeColor=none;fillColor=none;align=center;verticalAlign=middle;whiteSpace=wrap;rounded=0;" parent="1" vertex="1">
          <mxGeometry x="570" y="992" width="60" height="30" as="geometry" />
        </mxCell>
        <mxCell id="zy0sibjaueYdzKyYKhKY-106" style="edgeStyle=orthogonalEdgeStyle;rounded=0;orthogonalLoop=1;jettySize=auto;html=1;entryX=0.5;entryY=0;entryDx=0;entryDy=0;entryPerimeter=0;" parent="1" source="zy0sibjaueYdzKyYKhKY-71" target="zy0sibjaueYdzKyYKhKY-72" edge="1">
          <mxGeometry relative="1" as="geometry" />
        </mxCell>
      </root>
    </mxGraphModel>
  </diagram>
</mxfile>
